<svg width="19" height="17" viewBox="0 0 19 17" fill="none" xmlns="http://www.w3.org/2000/svg">
<path d="M18.4468 2.26681C18.4457 2.26681 18.4445 2.26667 18.4434 2.26667H13.3965V1.7C13.3965 0.762639 12.6473 0 11.7266 0H7.27344C6.35266 0 5.60352 0.762639 5.60352 1.7V2.26667H0.556641C0.246719 2.26667 0 2.52521 0 2.83333V15.3C0 16.2374 0.749146 17 1.66992 17H17.3301C18.2509 17 19 16.2374 19 15.3V2.84529C19 2.84455 19 2.84381 19 2.84307C18.9787 2.4709 18.7539 2.26888 18.4468 2.26681ZM6.7168 1.7C6.7168 1.3876 6.96656 1.13333 7.27344 1.13333H11.7266C12.0334 1.13333 12.2832 1.3876 12.2832 1.7V2.26667H6.7168V1.7ZM17.671 3.4L15.9424 8.67915C15.8666 8.91098 15.6544 9.06667 15.4145 9.06667H12.2832V8.5C12.2832 8.18701 12.034 7.93333 11.7266 7.93333H7.27344C6.96598 7.93333 6.7168 8.18701 6.7168 8.5V9.06667H3.58555C3.34564 9.06667 3.13342 8.91098 3.05761 8.67915L1.32898 3.4H17.671ZM11.1699 9.06667V10.2H7.83008V9.06667H11.1699ZM17.8867 15.3C17.8867 15.6124 17.637 15.8667 17.3301 15.8667H1.66992C1.36304 15.8667 1.11328 15.6124 1.11328 15.3V6.32527L2.00144 9.0376C2.22903 9.73294 2.86568 10.2 3.58555 10.2H6.7168V10.7667C6.7168 11.0797 6.96598 11.3333 7.27344 11.3333H11.7266C12.034 11.3333 12.2832 11.0797 12.2832 10.7667V10.2H15.4145C16.1343 10.2 16.771 9.73294 16.9986 9.0376L17.8867 6.32527V15.3Z" fill="#57B957"/>
</svg>
