<svg width="32" height="32" viewBox="0 0 32 32" fill="none" xmlns="http://www.w3.org/2000/svg">
<path d="M26.6604 16.0955L26.113 13.3585L28.9607 10.5107C30.9206 8.55098 32 5.94524 32 3.16993C32 1.42206 30.5779 0 28.8264 0C26.0548 0 23.4491 1.07925 21.4892 3.03912L18.6414 5.88693L15.9044 5.33949C16.424 4.17449 16.2073 2.75824 15.2529 1.80381C14.0169 0.567686 12.0057 0.567811 10.7699 1.80381L8.67923 3.89449L5.54536 3.26781C4.38849 3.03662 3.19999 3.39643 2.36581 4.23049C0.826998 5.7693 1.04069 8.32123 2.80887 9.58417L9.94317 14.6801C9.05617 15.7032 8.25423 16.7895 7.53774 17.932H2.89524C1.29887 17.932 0 19.2308 0 20.8273C0 21.9226 0.628186 22.9446 1.6005 23.4306L4.26387 24.7623L3.07406 27.5384C2.69924 28.4131 3.58693 29.3006 4.46149 28.9258L7.23761 27.736L8.56936 30.3995C9.05542 31.3718 10.0773 32 11.1727 32C12.769 32 14.0679 30.7012 14.0679 29.1048V24.4622C15.2104 23.7457 16.2968 22.9438 17.3198 22.0568L22.4157 29.1911V29.191C23.6786 30.9591 26.2296 31.1739 27.7693 29.6342C28.6035 28.8 28.9634 27.6114 28.7321 26.4546L28.1053 23.3208L30.1959 21.2301C31.4319 19.9942 31.4319 17.9832 30.1959 16.7471C29.2416 15.7926 27.8253 15.576 26.6604 16.0955ZM12.2642 3.29812C12.6763 2.88624 13.3465 2.88618 13.7585 3.29812C14.1705 3.71012 14.1705 4.38049 13.7586 4.79243L13.6603 4.89068L11.1697 4.39255L12.2642 3.29812ZM4.03737 7.86442C2.81543 6.99155 3.64331 5.04268 5.13099 5.33999C5.31293 5.37643 16.4749 7.60874 16.8454 7.68286L11.4028 13.1255L4.03737 7.86442ZM2.54556 21.5403C2.28293 21.409 2.11331 21.1291 2.11331 20.8271C2.11331 20.396 2.46406 20.0451 2.89524 20.0451H6.34474C5.87274 20.9791 5.66461 21.494 5.0978 22.8164L2.54556 21.5403ZM11.9547 29.1047C11.9547 29.5358 11.6039 29.8866 11.1727 29.8866C10.8708 29.8866 10.5909 29.717 10.4595 29.4544L9.18336 26.9021C10.494 26.3405 11.0182 26.1284 11.9546 25.6553V29.1047H11.9547ZM17.2119 19.271C13.4013 23.0816 9.96673 24.2672 6.05711 25.9427C7.73274 22.033 8.91798 18.5989 12.7286 14.7882C13.6415 13.8753 22.4391 5.07774 22.9835 4.53337C24.5441 2.97274 26.6192 2.11331 28.83 2.11331C29.4126 2.11331 29.8866 2.58731 29.8866 3.17362C29.8866 5.38074 29.0271 7.4558 27.4664 9.01648C27.0794 9.40348 17.598 18.8849 17.2119 19.271ZM24.1355 27.9627C24.1355 27.9626 24.1355 27.9626 24.1355 27.9626L18.8744 20.5971L24.3171 15.1545C24.5396 16.2672 26.4098 25.6181 26.6599 26.869C26.9537 28.3379 25.018 29.198 24.1355 27.9627ZM28.7018 19.7358L27.6073 20.8303L27.1092 18.3397L27.2074 18.2414C27.6195 17.8295 28.2897 17.8294 28.7018 18.2414C29.1138 18.6535 29.1138 19.3238 28.7018 19.7358Z" fill="white"/>
</svg>
