<svg width="19" height="19" viewBox="0 0 19 19" fill="none" xmlns="http://www.w3.org/2000/svg">
<path d="M2.38036 15.0192C0.959398 13.3718 0.180283 11.2903 0.180283 9.09016C0.180283 6.91594 0.937138 4.86045 2.32842 3.22051L0.977949 1.86998C0.681143 1.57315 0.681143 1.09453 0.977949 0.797708C1.27476 0.500886 1.75336 0.500886 2.05016 0.797708L3.40063 2.14825C5.04049 0.756895 7.09958 0 9.27369 0C11.4478 0 13.5032 0.756895 15.143 2.14825L16.4935 0.797708C16.7903 0.500886 17.2689 0.500886 17.5657 0.797708C17.8625 1.09453 17.8625 1.57315 17.5657 1.86998L16.2152 3.22051C19.0757 6.59686 19.0757 11.5835 16.2152 14.9598L17.5657 16.3103C17.8625 16.6072 17.8625 17.0858 17.5657 17.3826C17.2689 17.6794 16.7903 17.6794 16.4935 17.3826L15.143 16.0321C13.5032 17.4234 11.4478 18.1803 9.27369 18.1803C7.12555 18.1803 5.09243 17.4383 3.4637 16.0803L2.10952 17.4345C1.81272 17.7314 1.33412 17.7314 1.03731 17.4345C0.740505 17.1377 0.740505 16.6591 1.03731 16.3623L2.38036 15.0192ZM1.6977 9.09016C1.6977 10.8859 2.31729 12.5852 3.45628 13.9432L5.25196 12.1474C4.58415 11.2718 4.22056 10.2107 4.22056 9.09016C4.22056 7.99563 4.56559 6.95675 5.20373 6.09597L3.40434 4.29649C2.29874 5.64332 1.6977 7.32036 1.6977 9.09016ZM11.7706 11.5909C12.4384 10.923 12.8057 10.0363 12.8057 9.09016C12.8057 8.14404 12.4384 7.25728 11.7706 6.58944C11.1028 5.92159 10.216 5.55427 9.26998 5.55427C8.3239 5.55427 7.4372 5.92159 6.76938 6.58944C6.10157 7.25728 5.73427 8.14404 5.73427 9.09016C5.73427 10.0326 6.10157 10.923 6.76938 11.5909C7.4372 12.2587 8.3239 12.626 9.26998 12.626C10.216 12.626 11.1028 12.2587 11.7706 11.5909ZM9.27369 1.51379C7.50398 1.51379 5.83073 2.11485 4.48026 3.22422L6.27965 5.0237C7.14039 4.38554 8.18292 4.04048 9.27369 4.04048C10.3682 4.04048 11.407 4.38554 12.2677 5.0237L14.0671 3.22422C12.7166 2.11856 11.0397 1.51379 9.27369 1.51379ZM15.1356 4.29649L13.3362 6.09597C13.9744 6.95675 14.3194 7.99934 14.3194 9.09016C14.3194 10.181 13.9744 11.2236 13.3362 12.0843L15.1356 13.8838C17.4136 11.1048 17.4136 7.07548 15.1356 4.29649ZM9.27369 16.6665C11.0434 16.6665 12.7166 16.0655 14.0671 14.9561L12.2677 13.1566C11.4033 13.7948 10.3644 14.1398 9.27369 14.1398C8.20518 14.1398 7.19233 13.8096 6.34272 13.2011L4.53963 15.0043C5.87525 16.0803 7.52995 16.6665 9.27369 16.6665Z" fill="#57B957"/>
</svg>
