<svg width="19" height="19" viewBox="0 0 19 19" fill="none" xmlns="http://www.w3.org/2000/svg">
<path d="M17.8242 16.2784C17.8219 16.2784 17.8195 16.2784 17.8171 16.2784C17.1529 16.2849 16.5156 16.4088 15.9739 16.6367C15.5602 16.8107 15.0639 16.9265 14.4922 16.9832C14.9919 16.4074 15.2946 15.6563 15.2946 14.8359C15.2946 13.0271 13.8231 11.5555 12.0143 11.5555C11.3241 11.5555 10.6832 11.7699 10.1543 12.1354V9.3774C10.5632 9.61059 11.0357 9.74456 11.5391 9.74456C12.3714 9.74456 13.1199 9.37978 13.6341 8.8021C14.1483 9.37978 14.8967 9.74456 15.7291 9.74456C17.2759 9.74456 18.5343 8.48618 18.5343 6.93939C18.5343 6.54716 18.2163 6.22922 17.8241 6.22922C17.4319 6.22922 17.1139 6.54716 17.1139 6.93939C17.1139 7.703 16.4927 8.32422 15.7291 8.32422C14.9655 8.32422 14.3443 7.703 14.3443 6.93939C14.3443 6.87881 14.3359 6.82037 14.3216 6.76423C14.1493 5.35145 13.5165 4.09076 12.4732 3.07081C13.7902 3.41695 14.879 4.01385 15.7272 4.85746C15.8657 4.99527 16.0469 5.06412 16.228 5.06412C16.4104 5.06412 16.5927 4.99431 16.7315 4.85476C17.0081 4.57666 17.0069 4.12701 16.7288 3.85044C15.9682 3.09389 15.0369 2.49451 13.9609 2.06897C12.8443 1.62736 11.5663 1.37322 10.1543 1.30984V0.973964C10.1543 0.581737 9.83633 0.263794 9.4441 0.263794C9.05187 0.263794 8.73393 0.581737 8.73393 0.973964V1.30973C7.25777 1.37596 5.92887 1.65079 4.77609 2.1303C3.68485 2.58417 2.74895 3.21988 1.99447 4.01978C1.01273 5.06057 0.594974 6.11389 0.443353 6.59482C0.38654 6.6969 0.353943 6.81426 0.353943 6.93939C0.353943 8.48618 1.61233 9.74456 3.15911 9.74456C3.99146 9.74456 4.73994 9.37978 5.25411 8.8021C5.76827 9.37978 6.51675 9.74456 7.3491 9.74456C7.85254 9.74456 8.32502 9.61059 8.73393 9.3774V16.2781C8.73393 16.2965 8.73532 16.3146 8.7367 16.3327C8.33499 16.3902 7.95409 16.4926 7.61158 16.6367C7.00481 16.8919 6.22086 17.0221 5.28116 17.0238C4.41525 17.0222 3.68506 16.8976 3.1106 16.6536C2.52471 16.4046 1.83617 16.2784 1.06411 16.2784C0.671885 16.2784 0.353943 16.5963 0.353943 16.9885C0.353943 17.3808 0.671885 17.6987 1.06411 17.6987C1.64425 17.6987 2.14591 17.7869 2.55515 17.9608C3.30164 18.278 4.21247 18.4405 5.26291 18.4441L5.29821 18.4441V18.4441C6.42102 18.4406 7.3845 18.2731 8.16228 17.9459C8.53015 17.7911 8.99414 17.7033 9.46874 17.6986C9.9937 17.6932 10.5075 17.7866 10.9175 17.9607C11.664 18.2779 12.5748 18.4405 13.6253 18.444L13.6605 18.4441V18.444C14.7834 18.4406 15.7468 18.2731 16.5246 17.9459C16.8925 17.7911 17.3565 17.7033 17.8311 17.6986C18.2233 17.6948 18.5381 17.3737 18.5342 16.9815C18.5304 16.5917 18.2132 16.2784 17.8242 16.2784ZM12.0143 12.9758C13.0399 12.9758 13.8743 13.8102 13.8743 14.8358C13.8743 15.8614 13.0399 16.6958 12.0143 16.6958C10.9887 16.6958 10.1543 15.8615 10.1543 14.8358C10.1543 13.8102 10.9887 12.9758 12.0143 12.9758ZM12.9212 7.02291C12.8778 7.74774 12.2746 8.32422 11.5391 8.32422C10.7755 8.32422 10.1543 7.703 10.1543 6.93939V3.10437C11.1727 3.6747 12.6971 4.87532 12.9212 7.02291ZM3.15911 8.32422C2.44184 8.32422 1.85027 7.77604 1.78113 7.07663C1.86426 6.79437 2.19097 5.85766 3.08181 4.93771C3.94022 4.0512 5.05586 3.4276 6.41509 3.07071C5.37178 4.09069 4.73891 5.35142 4.56659 6.76419C4.55232 6.82037 4.54394 6.87881 4.54394 6.93939C4.54394 7.703 3.92272 8.32422 3.15911 8.32422ZM7.3491 8.32422C6.61326 8.32422 6.00987 7.74728 5.96697 7.02202C6.10588 5.68853 6.74944 4.56153 7.88112 3.67183C8.17773 3.43868 8.47223 3.25159 8.73397 3.10529V6.93939C8.73393 7.703 8.11271 8.32422 7.3491 8.32422Z" fill="#57B957"/>
</svg>
