<svg width="19" height="19" viewBox="0 0 19 19" fill="none" xmlns="http://www.w3.org/2000/svg">
<path d="M16.4754 0.163079C16.2581 -0.0543595 15.9055 -0.0543595 15.6882 0.163079L11.3982 4.45313H1.66993C0.74915 4.45313 0 5.20228 0 6.12306V13.9159C0 14.8368 0.74915 15.5858 1.66993 15.5858H2.26368V18.4432C2.26368 18.6695 2.40067 18.8733 2.61014 18.9587C2.82265 19.0454 3.06227 18.9919 3.21824 18.8326L6.3943 15.5858H12.877C13.7978 15.5858 14.547 14.8368 14.547 13.9159V7.60193L18.837 3.31187C19.0543 3.09443 19.0543 2.74204 18.837 2.5246L16.4754 0.163079ZM11.3584 9.2159L9.78403 7.6415L14.5074 2.91831L16.0818 4.49271L11.3584 9.2159ZM9.191 8.62287L10.3771 9.80892L8.34415 10.6558L9.191 8.62287ZM13.4337 13.9159C13.4337 14.2229 13.1839 14.4725 12.877 14.4725H6.16019C6.01045 14.4725 5.86694 14.533 5.76228 14.64L3.37697 17.0783V15.0292C3.37697 14.7219 3.12779 14.4725 2.82033 14.4725H1.66993C1.36305 14.4725 1.11329 14.2229 1.11329 13.9159V6.12306C1.11329 5.81603 1.36305 5.56642 1.66993 5.56642H10.2847L8.60319 7.24794C8.5568 7.29432 8.51085 7.35825 8.48027 7.43392L6.93949 11.1328H3.93362C3.62616 11.1328 3.37697 11.382 3.37697 11.6895C3.37697 11.9968 3.62616 12.2457 3.93362 12.2457H7.3103H7.31073C7.38234 12.2457 7.45917 12.231 7.52948 12.2009L11.566 10.5197C11.6333 10.4934 11.7011 10.4478 11.7521 10.3967L13.4337 8.71521V13.9159ZM16.8689 3.70543L15.2945 2.13104L16.0818 1.34391L17.6562 2.91831L16.8689 3.70543Z" fill="#57B957"/>
</svg>
