<svg width="18" height="18" viewBox="0 0 18 18" fill="none" xmlns="http://www.w3.org/2000/svg">
<path d="M17.9997 7.13855V7.13697C17.9997 7.12196 17.9989 7.10709 17.9977 7.09229C17.9973 7.08824 17.9968 7.08423 17.9964 7.08019C17.9951 7.06859 17.9935 7.05709 17.9915 7.0457C17.9907 7.04141 17.99 7.03713 17.9892 7.03287C17.9863 7.01899 17.9831 7.0052 17.9792 6.99167C17.9789 6.99033 17.9785 6.98896 17.9782 6.98763C17.974 6.97377 17.9693 6.96017 17.9641 6.94674C17.9621 6.94161 17.9599 6.93658 17.9578 6.93148C17.9539 6.92241 17.9498 6.91345 17.9455 6.90462C17.9429 6.89949 17.9405 6.89432 17.9378 6.88926C17.9313 6.87692 17.9243 6.86483 17.9167 6.85302C17.9139 6.84862 17.9108 6.8444 17.9079 6.84008C17.902 6.83146 17.8959 6.82303 17.8896 6.8148C17.8862 6.81041 17.8827 6.80605 17.8792 6.80172C17.8699 6.79051 17.8604 6.77954 17.8502 6.7691C17.8494 6.76829 17.8486 6.76745 17.8478 6.76664C17.8369 6.75556 17.8253 6.74512 17.8134 6.735C17.8119 6.73373 17.8106 6.73233 17.8091 6.73109L16.9099 5.98491V3.69174C16.9099 3.01327 16.3579 2.46129 15.6795 2.46129H12.6639L10.2347 0.445283C9.51912 -0.148428 8.48055 -0.148428 7.76506 0.445283L5.3358 2.46125H2.32028C1.64181 2.46125 1.08983 3.01323 1.08983 3.6917V5.98488L0.190579 6.73117C0.189103 6.7324 0.187802 6.7338 0.186325 6.73507C0.174408 6.74519 0.162806 6.75563 0.151908 6.76671C0.151099 6.76752 0.150326 6.76836 0.149517 6.76917C0.139357 6.77961 0.12976 6.79058 0.120514 6.80179C0.116963 6.80608 0.113553 6.81048 0.110143 6.81487C0.10378 6.82313 0.0976978 6.83157 0.0918268 6.84015C0.0888737 6.84447 0.08578 6.84869 0.0829676 6.85309C0.0754442 6.86486 0.0684482 6.87696 0.0618741 6.88933C0.0591671 6.89439 0.0567414 6.89956 0.0542453 6.90469C0.049886 6.91352 0.0458079 6.92248 0.0419408 6.93155C0.0397963 6.93662 0.0376167 6.94168 0.0356479 6.94681C0.0304449 6.96024 0.0256285 6.97381 0.0215505 6.9877C0.0211638 6.98903 0.0208474 6.99037 0.0204606 6.99174C0.0165584 7.00527 0.0133592 7.01906 0.0105467 7.03294C0.00970299 7.03723 0.00896472 7.04149 0.00822644 7.04577C0.00622257 7.05716 0.0046054 7.06866 0.0033398 7.08026C0.00291793 7.0843 0.00239059 7.08831 0.00203903 7.09236C0.000843738 7.10709 0 7.12196 0 7.13697V7.13855V7.13883V16.0658C0 16.6184 0.233364 17.1172 0.606296 17.4699C0.616878 17.4805 0.627495 17.491 0.638815 17.5005C0.98183 17.8104 1.43601 17.9994 1.93357 17.9994H16.0662C16.5638 17.9994 17.018 17.8103 17.361 17.5004C17.3722 17.4909 17.3828 17.4805 17.3933 17.47C17.7663 17.1173 17.9997 16.6184 17.9997 16.0658V7.13883C17.9997 7.13876 17.9997 7.13866 17.9997 7.13855ZM2.32028 3.51593H15.6795C15.7764 3.51593 15.8552 3.59478 15.8552 3.6917V7.79375L15.5568 8.04138L9.56117 13.0171C9.23594 13.287 8.7638 13.2869 8.43857 13.0171L2.4429 8.04142L2.1445 7.79375V3.6917C2.1445 3.59478 2.22335 3.51593 2.32028 3.51593ZM1.05467 16.0658V8.25984L1.2815 8.4481C1.28164 8.44821 1.28178 8.44835 1.28192 8.44845L6.43115 12.7217L1.10867 16.3691C1.07376 16.2746 1.05467 16.1724 1.05467 16.0658ZM7.27502 13.422L7.76506 13.8287C8.48055 14.4224 9.51919 14.4224 10.2347 13.8287L10.7247 13.422L15.8652 16.9447H2.13452L7.27502 13.422ZM11.5686 12.7217L16.7178 8.44845C16.7179 8.44835 16.7181 8.44821 16.7182 8.4481L16.945 8.25984V16.0658C16.945 16.1724 16.9259 16.2746 16.891 16.3691L11.5686 12.7217ZM8.43857 1.25692C8.7638 0.987033 9.23594 0.987033 9.56117 1.25692L11.0124 2.46129H6.98731L8.43857 1.25692Z" fill="#57B957"/>
<path d="M4.62299 5.80016C4.62299 6.09139 4.85909 6.3275 5.15032 6.3275H10.1424C10.4337 6.3275 10.6698 6.09139 10.6698 5.80016C10.6698 5.50893 10.4337 5.27283 10.1424 5.27283H5.15032C4.85909 5.27283 4.62299 5.50893 4.62299 5.80016Z" fill="#57B957"/>
<path d="M5.15032 8.43687H12.8494C13.0951 8.43687 13.3009 8.26862 13.3595 8.04123C13.3704 7.99904 13.3768 7.9551 13.3768 7.90954C13.3768 7.61831 13.1407 7.3822 12.8494 7.3822H5.15032C4.85909 7.3822 4.62299 7.61831 4.62299 7.90954C4.62299 7.9551 4.62938 7.99908 4.64025 8.04123C4.69882 8.26865 4.90465 8.43687 5.15032 8.43687Z" fill="#57B957"/>
</svg>
