<svg width="21" height="19" viewBox="0 0 21 19" fill="none" xmlns="http://www.w3.org/2000/svg">
<path d="M9.81093 0H1.243C0.557595 0 0 0.557595 0 1.24304V17.757C0 18.4424 0.557595 19 1.243 19H9.81096C10.4963 19 11.054 18.4424 11.054 17.757V1.24304C11.0539 0.557595 10.4963 0 9.81093 0ZM1.18193 3.30046H9.87199V14.9392H1.18193V3.30046ZM1.243 1.18193H9.81096C9.84461 1.18193 9.87203 1.20931 9.87203 1.24304V2.11853H1.18193V1.24304C1.18193 1.20931 1.20931 1.18193 1.243 1.18193ZM9.81093 17.8181H1.243C1.20935 17.8181 1.18193 17.7907 1.18193 17.757V16.1211H9.87199V17.757C9.87199 17.7907 9.84461 17.8181 9.81093 17.8181Z" fill="#57B957"/>
<path d="M5.52706 17.6508C5.89223 17.6508 6.18827 17.3547 6.18827 16.9895C6.18827 16.6242 5.89223 16.3281 5.52706 16.3281C5.16188 16.3281 4.86584 16.6242 4.86584 16.9895C4.86584 17.3547 5.16188 17.6508 5.52706 17.6508Z" fill="#57B957"/>
<path d="M17.5302 9.50428C17.5302 7.03768 16.5709 4.71747 14.829 2.97113C14.5985 2.74002 14.2243 2.73955 13.9932 2.97006C13.7621 3.20058 13.7617 3.57474 13.9922 3.80581C15.5115 5.32904 16.3482 7.35278 16.3482 9.50432C16.3482 10.6363 16.1186 11.7308 15.6657 12.7573C15.228 13.7493 14.6041 14.6311 13.8112 15.3781C13.5736 15.6019 13.5625 15.9759 13.7864 16.2135C13.9027 16.3369 14.0594 16.3992 14.2166 16.3992C14.3619 16.3992 14.5076 16.3459 14.6217 16.2384C15.5302 15.3824 16.2452 14.3717 16.747 13.2344C17.2667 12.0566 17.5302 10.8016 17.5302 9.50428Z" fill="#57B957"/>
<path d="M16.697 1.10284C16.4664 0.871776 16.0922 0.871461 15.8612 1.10202C15.6302 1.33257 15.6298 1.70677 15.8604 1.93776C17.8785 3.95996 18.99 6.64712 18.99 9.50428C18.99 10.9937 18.6903 12.4349 18.0993 13.7879C17.5283 15.0952 16.7134 16.26 15.6772 17.25C15.4412 17.4755 15.4327 17.8496 15.6582 18.0855C15.7743 18.2071 15.9298 18.2683 16.0855 18.2683C16.2323 18.2683 16.3793 18.2139 16.4937 18.1046C17.6437 17.0058 18.5483 15.7126 19.1824 14.261C19.839 12.7579 20.1719 11.1575 20.1719 9.50428C20.1719 6.3319 18.9378 3.3482 16.697 1.10284Z" fill="#57B957"/>
<path d="M12.9823 4.81874C12.7519 4.58752 12.3777 4.58689 12.1465 4.81724C11.9153 5.04764 11.9146 5.42184 12.145 5.65303C13.1711 6.6828 13.7362 8.05053 13.7362 9.50431C13.7362 11.0279 13.092 12.4932 11.9688 13.5244C11.7284 13.7452 11.7125 14.119 11.9332 14.3594C12.0497 14.4863 12.2089 14.5507 12.3686 14.5507C12.5115 14.5507 12.6547 14.4992 12.7682 14.395C14.1345 13.1406 14.9181 11.358 14.9181 9.50427C14.9181 7.73563 14.2306 6.07155 12.9823 4.81874Z" fill="#57B957"/>
</svg>
