<svg width="19" height="19" viewBox="0 0 19 19" fill="none" xmlns="http://www.w3.org/2000/svg">
<path d="M14.7349 9.38952C13.5601 9.38952 12.6043 10.3453 12.6043 11.52C12.6043 12.6948 13.5601 13.6505 14.7349 13.6505H17.7531C17.7651 13.6505 17.7769 13.6493 17.7888 13.6487C17.8005 13.6493 17.8122 13.6505 17.8241 13.6505C18.2163 13.6505 18.5343 13.3326 18.5343 12.9403V7.3655C18.5343 6.42006 18.0696 5.58153 17.357 5.06491L14.941 1.10146C14.8425 0.939829 14.6835 0.824214 14.4994 0.780325C14.3152 0.736366 14.1212 0.767791 13.9603 0.867569L12.1786 1.97245L11.3751 0.61269C11.2785 0.449209 11.1205 0.33125 10.9363 0.285089C10.7522 0.238928 10.5571 0.268507 10.3949 0.367078L3.55357 4.52483H2.48445C2.09879 4.52483 1.78394 4.21584 1.77449 3.83242C1.78394 3.449 2.09879 3.14 2.48445 3.14H3.79826C4.19049 3.14 4.50843 2.82206 4.50843 2.42983C4.50843 2.03761 4.19049 1.71966 3.79826 1.71966H2.48445C1.47963 1.71966 0.635134 2.41897 0.411822 3.35643C0.37468 3.44257 0.353943 3.53738 0.353943 3.63712V3.81466V3.85017V15.6035C0.353943 17.1698 1.62827 18.4441 3.19462 18.4441H15.6936C16.9183 18.4441 18.0014 17.664 18.3887 16.5029C18.5128 16.1308 18.3118 15.7286 17.9398 15.6045C17.5678 15.4804 17.1655 15.6813 17.0414 16.0534C16.8477 16.6338 16.3061 17.0238 15.6936 17.0238H3.19462C2.41144 17.0238 1.77428 16.3866 1.77428 15.6035V5.82334C1.99653 5.90217 2.23553 5.94517 2.48445 5.94517H15.6936C16.4768 5.94517 17.1139 6.58233 17.1139 7.3655V9.38952H14.7349ZM17.1139 12.2302H14.7349C14.3433 12.2302 14.0247 11.9116 14.0247 11.52C14.0247 11.1284 14.3433 10.8098 14.7349 10.8098H17.1139V12.2302ZM6.28839 4.52487L10.5181 1.9543L11.2743 3.23406C11.2889 3.26904 11.3056 3.30352 11.3262 3.33675C11.3416 3.36165 11.3587 3.38483 11.3766 3.40713L12.037 4.52487H6.28839ZM13.6868 4.52483L12.9013 3.19554L14.1007 2.45181L15.3643 4.52483H13.6868Z" fill="#57B957"/>
</svg>
